<svg xmlns="http://www.w3.org/2000/svg" xmlns:xlink="http://www.w3.org/1999/xlink" width="48" height="48" viewBox="0 0 48 48">
  <defs>
    <filter id="Path_124" x="0" y="0" width="48" height="48" filterUnits="userSpaceOnUse">
      <feOffset dy="3" input="SourceAlpha"/>
      <feGaussianBlur stdDeviation="3" result="blur"/>
      <feFlood flood-opacity="0.161"/>
      <feComposite operator="in" in2="blur"/>
      <feComposite in="SourceGraphic"/>
    </filter>
    <filter id="star" x="12.35" y="11.15" width="23.316" height="23.318" filterUnits="userSpaceOnUse">
      <feOffset dy="2" input="SourceAlpha"/>
      <feGaussianBlur stdDeviation="1" result="blur-2"/>
      <feFlood flood-opacity="0.412"/>
      <feComposite operator="in" in2="blur-2"/>
      <feComposite in="SourceGraphic"/>
    </filter>
  </defs>
  <g id="Group_99" data-name="Group 99" transform="translate(-179 -578)">
    <g transform="matrix(1, 0, 0, 1, 179, 578)" filter="url(#Path_124)">
      <path id="Path_124-2" data-name="Path 124" d="M15,0A15,15,0,1,1,0,15,15,15,0,0,1,15,0Z" transform="translate(9 6)" fill="#ededed"/>
    </g>
    <g transform="matrix(1, 0, 0, 1, 179, 578)" filter="url(#star)">
      <path id="star-2" data-name="star" d="M13.528,17.316a1.078,1.078,0,0,1-.439-.093l-4.431-1.97-4.431,1.97a1.08,1.08,0,0,1-1.5-1.2L3.7,11.179.317,7.8A1.082,1.082,0,0,1,.869,5.974L5.732,5,7.669.643a1.082,1.082,0,0,1,1.978,0L11.584,5l4.862.972A1.082,1.082,0,0,1,17,7.8L13.62,11.179l.969,4.843a1.082,1.082,0,0,1-1.061,1.294Zm-4.87-4.329a1.082,1.082,0,0,1,.439.093l2.96,1.315-.672-3.36a1.082,1.082,0,0,1,.3-.977L14.039,7.7,10.61,7.013a1.082,1.082,0,0,1-.777-.621L8.658,3.747,7.483,6.392a1.08,1.08,0,0,1-.777.621L3.277,7.7l2.358,2.358a1.082,1.082,0,0,1,.3.977L5.26,14.4,8.219,13.08A1.082,1.082,0,0,1,8.658,12.987Z" transform="translate(15.35 12.15)" fill="#1f1f1f"/>
    </g>
  </g>
</svg>
