<svg xmlns="http://www.w3.org/2000/svg" xmlns:xlink="http://www.w3.org/1999/xlink" width="48" height="48" viewBox="0 0 48 48">
  <defs>
    <filter id="Path_121" x="0" y="0" width="48" height="48" filterUnits="userSpaceOnUse">
      <feOffset dy="3" input="SourceAlpha"/>
      <feGaussianBlur stdDeviation="3" result="blur"/>
      <feFlood flood-opacity="0.161"/>
      <feComposite operator="in" in2="blur"/>
      <feComposite in="SourceGraphic"/>
    </filter>
    <filter id="like_1_" x="11.613" y="12.004" width="25" height="23.093" filterUnits="userSpaceOnUse">
      <feOffset dy="2" input="SourceAlpha"/>
      <feGaussianBlur stdDeviation="1" result="blur-2"/>
      <feFlood flood-opacity="0.369"/>
      <feComposite operator="in" in2="blur-2"/>
      <feComposite in="SourceGraphic"/>
    </filter>
  </defs>
  <g id="Group_102" data-name="Group 102" transform="translate(-16.176 -577)">
    <g transform="matrix(1, 0, 0, 1, 16.18, 577)" filter="url(#Path_121)">
      <path id="Path_121-2" data-name="Path 121" d="M15,0A15,15,0,1,1,0,15,15,15,0,0,1,15,0Z" transform="translate(9 6)" fill="#cdcdcd"/>
    </g>
    <g transform="matrix(1, 0, 0, 1, 16.18, 577)" filter="url(#like_1_)">
      <path id="like_1_2" data-name="like (1)" d="M118.5,236.1a5.571,5.571,0,0,1-3.335-1.1c-3.957-2.953-6.088-6.5-6.164-10.256,0-.013,0-.026,0-.038a5.706,5.706,0,0,1,5.7-5.7c1.459,0,2.791,1.518,3.8,2.421,1.009-.9,2.342-2.421,3.8-2.421a5.706,5.706,0,0,1,5.7,5.7c0,.013,0,.026,0,.038-.076,3.756-2.208,7.3-6.164,10.256A5.571,5.571,0,0,1,118.5,236.1Zm-5.7-11.411c.076,3.2,2.562,5.717,4.638,7.267a1.787,1.787,0,0,0,2.124,0c2.075-1.549,4.562-4.066,4.638-7.267a1.9,1.9,0,0,0-3.8.006,1.9,1.9,0,0,1-3.8,0,1.9,1.9,0,0,0-3.8-.006Z" transform="translate(-94.39 -206)" fill="#fff"/>
    </g>
  </g>
</svg>
